<?xml version="1.0" encoding="UTF-8"?>
<svg width="512" height="512" viewBox="0 0 512 512" fill="none" xmlns="http://www.w3.org/2000/svg">
    <path d="M256 32C127.6 32 96 79.5 96 128v64h128v16H64c-35.3 0-64 28.7-64 64v96c0 35.3 28.7 64 64 64h64v-80c0-35.3 28.7-64 64-64h128c35.3 0 64-28.7 64-64V128c0-48.5-31.6-96-160-96zM160 144c-13.3 0-24-10.7-24-24s10.7-24 24-24 24 10.7 24 24-10.7 24-24 24z" fill="#3776AB"/>
    <path d="M416 208H288c-35.3 0-64 28.7-64 64v80h-64c-35.3 0-64 28.7-64 64v96c0 48.5 31.6 96 160 96s160-47.5 160-96v-64H288v-16h160c35.3 0 64-28.7 64-64v-96c0-35.3-28.7-64-64-64zM352 464c-13.3 0-24-10.7-24-24s10.7-24 24-24 24 10.7 24 24-10.7 24-24 24z" fill="#FFD43B"/>
</svg> 